<?xml version="1.0" standalone="no"?>
<!DOCTYPE svg PUBLIC "-//W3C//DTD SVG 20010904//EN"
 "http://www.w3.org/TR/2001/REC-SVG-20010904/DTD/svg10.dtd">
<svg version="1.0" xmlns="http://www.w3.org/2000/svg"
 width="250.000000pt" height="250.000000pt" viewBox="0 0 250.000000 250.000000"
 preserveAspectRatio="xMidYMid meet">

<g transform="translate(0.000000,250.000000) scale(0.100000,-0.100000)"
fill="#000000" stroke="none">
<path d="M1126 2169 c-249 -36 -494 -183 -625 -372 l-32 -47 87 0 87 0 72 69
c310 295 787 288 1091 -15 l54 -55 87 3 86 3 -62 78 c-197 248 -533 381 -845
336z"/>
<path d="M305 1539 c-200 -29 -315 -194 -261 -373 19 -62 56 -109 119 -151 82
-54 149 -65 405 -65 l222 0 0 175 0 175 -266 0 -265 0 57 -70 58 -70 118 0
118 0 0 -30 0 -30 -137 0 c-119 0 -142 3 -181 21 -56 28 -82 69 -82 133 0 43
4 53 38 86 21 21 55 43 77 49 22 6 113 11 202 11 l162 0 56 69 c30 39 55 72
55 75 0 9 -429 4 -495 -5z"/>
<path d="M1264 1531 c-35 -16 -66 -53 -219 -267 -99 -137 -190 -264 -203 -282
l-25 -33 114 3 113 3 132 180 c72 98 135 180 140 182 8 2 144 -183 152 -208 2
-5 -48 -9 -121 -9 l-125 0 -51 -70 c-28 -38 -51 -72 -51 -75 0 -3 155 -5 345
-5 l344 0 -180 258 c-201 285 -220 308 -266 328 -41 18 -49 17 -99 -5z"/>
<path d="M1830 1250 l0 -300 88 0 87 0 0 112 0 113 163 5 162 5 55 70 54 70
-220 3 -220 2 3 33 3 32 176 3 177 2 56 75 56 75 -320 0 -320 0 0 -300z"/>
<path d="M501 703 c109 -159 313 -296 518 -350 120 -32 312 -36 430 -10 207
47 395 164 523 325 l61 77 -86 3 -87 3 -54 -55 c-171 -171 -418 -257 -647
-226 -176 24 -318 91 -444 211 l-72 69 -87 0 -87 0 32 -47z"/>
</g>
</svg>
