<!-- Generated by IcoMoon.io -->
<svg version="1.1" xmlns="http://www.w3.org/2000/svg" width="25" height="32" viewBox="0 0 25 32">
<title>SCUEFLogo_Recreated</title>
<path d="M4.958 19.086c-1.029-1.029-2.057-2.057-3.086-3.086 1.029-1.029 2.057-2.057 3.086-3.086 1.029 1.029 2.057 2.057 3.086 3.086-1.029 1.029-2.057 2.057-3.086 3.086z"></path>
<path d="M8.661 22.788c-1.029-1.029-2.057-2.057-3.086-3.086 1.029-1.029 2.057-2.057 3.086-3.086 1.029 1.029 2.057 2.057 3.086 3.086-1.028 1.029-2.057 2.057-3.086 3.086z"></path>
<path d="M12.364 26.491c-1.029-1.029-2.057-2.057-3.086-3.086 1.029-1.029 2.057-2.057 3.086-3.086 1.029 1.029 2.057 2.057 3.086 3.086-1.029 1.029-2.057 2.057-3.086 3.086z"></path>
<path d="M16.066 22.788c-1.029-1.029-2.057-2.057-3.086-3.086 1.029-1.029 2.057-2.057 3.086-3.086 1.029 1.029 2.057 2.057 3.086 3.086-1.029 1.029-2.057 2.057-3.086 3.086z"></path>
<path d="M19.769 19.086c-1.029-1.029-2.057-2.057-3.086-3.086 1.029-1.029 2.057-2.057 3.086-3.086 1.029 1.029 2.057 2.057 3.086 3.086-1.029 1.029-2.057 2.057-3.086 3.086z"></path>
<path d="M12.364 19.086c-2.256-2.256-4.512-4.512-6.768-6.768 2.256-2.27 4.512-4.539 6.768-6.809 2.263 2.263 4.525 4.526 6.788 6.788-2.263 2.263-4.526 4.526-6.788 6.788z"></path>
</svg>
